<svg width="881" height="149" viewBox="0 0 881 149" fill="none" xmlns="http://www.w3.org/2000/svg">
<g clip-path="url(#clip0)">
<g filter="url(#filter0_d)">
<path d="M470.575 13.0375L468.838 11.175C462.756 3.725 453.2 0 444.513 0C435.825 0 426.269 3.725 419.319 11.175L352.425 82.8812C338.525 97.7812 338.525 121.063 352.425 135.963L354.162 137.825C360.244 145.275 369.8 149 378.487 149C387.175 149 396.731 145.275 403.681 137.825L471.444 65.1875C484.475 51.2187 484.475 27.0062 470.575 13.0375ZM464.494 59.6L430.612 95.9188L400.206 62.3937L367.194 97.7812C357.638 108.025 357.637 121.062 358.506 130.375C348.081 119.2 348.081 101.506 358.506 90.3312L426.269 17.6937C430.612 12.1062 437.563 9.3125 444.513 9.3125C451.463 9.3125 458.412 12.1062 463.625 17.6937L465.362 19.5562C469.706 24.2125 472.312 31.6625 472.312 39.1125C472.312 46.5625 469.706 54.0125 464.494 59.6Z" fill="#DF911B"/>
</g>
</g>
<path d="M42.2 142.736C40.328 136.976 38.672 131.36 37.232 125.888L30.32 102.128C28.016 94.352 26.216 88.52 24.92 84.632C23.768 80.312 22.832 77.072 22.112 74.912L0.0800018 0.391998H44.144L84.536 149H44.144L42.2 142.736ZM76.112 83.12L97.928 0.391998H141.128L119.096 74.912L111.104 102.128C108.512 110.48 106.136 118.4 103.976 125.888C102.536 131.36 100.88 136.976 99.008 142.736L97.064 149H94.04L76.112 83.12Z" fill="#494949"/>
<path d="M156.267 0.391998H199.467V149H156.267V0.391998Z" fill="#494949"/>
<path d="M215.467 0.391998H337.075V34.952H215.467V0.391998ZM254.563 43.592H297.763V149H254.563V43.592Z" fill="#494949"/>
<path d="M491.657 6.87199V0.391998H531.401L593.609 132.584L586.481 149H558.401L491.657 6.87199ZM613.697 86.576H612.833L598.361 121.568L579.785 81.824L613.697 0.391998H654.737V149H613.697V86.576ZM491.657 28.256L531.401 112.928V149H491.657V28.256Z" fill="#494949"/>
<path d="M682.767 0.391998H725.967V149H682.767V0.391998Z" fill="#494949"/>
<path d="M754.063 6.43999V0.391998H797.263L880.639 142.736V149H837.655L754.063 6.43999ZM839.599 54.608V0.391998H880.639V124.808L839.599 54.608ZM754.063 24.368L795.103 94.568V149H754.063V24.368Z" fill="#494949"/>
<defs>
<filter id="filter0_d" x="341" y="0" width="141.111" height="151" filterUnits="userSpaceOnUse" color-interpolation-filters="sRGB">
<feFlood flood-opacity="0" result="BackgroundImageFix"/>
<feColorMatrix in="SourceAlpha" type="matrix" values="0 0 0 0 0 0 0 0 0 0 0 0 0 0 0 0 0 0 127 0"/>
<feOffset dy="1"/>
<feGaussianBlur stdDeviation="0.5"/>
<feColorMatrix type="matrix" values="0 0 0 0 0 0 0 0 0 0 0 0 0 0 0 0 0 0 0.25 0"/>
<feBlend mode="normal" in2="BackgroundImageFix" result="effect1_dropShadow"/>
<feBlend mode="normal" in="SourceGraphic" in2="effect1_dropShadow" result="shape"/>
</filter>
<clipPath id="clip0">
<rect width="139" height="149" fill="white" transform="translate(342)"/>
</clipPath>
</defs>
</svg>
