<svg width="169" height="140" xmlns="http://www.w3.org/2000/svg" stroke="null" style="vector-effect: non-scaling-stroke;">

 <g stroke="null">
  <title stroke="null">Layer 1</title>
  <g stroke="null" fill="#45b04a" featurekey="symbolGroupContainer" id="SvgjsG10326">
   <rect x="30.85466" y="14.44421" stroke="null" id="svg_1" ry="10" rx="10" height="110" width="110" xmlns="http://www.w3.org/2000/svg"/>
  </g>
  <g stroke="null" fill="#ffffff" transform="matrix(1.66768 0 0 1.66768 20.0016 -10.0183)" featurekey="monogramFeature-0" id="SvgjsG10327">
   <path stroke="null" id="svg_2" d="m32.72152,65.66125c-5.82,-5.82 -16.92,-26.82 -13.62,-35.1c2.94,-7.62 14.1,-2.34 20.34,2.64c4.14,-3.36 10.26,-6.54 14.94,-6.54c3.06,0 4.8,1.38 5.7,3.78c2.58,8.52 -8.16,28.74 -13.8,35.1c-3.36,3.9 -9.3,4.38 -13.56,0.12zm-7.98,-34.74c-1.14,0 -1.56,0.48 -1.8,1.14c-2.16,5.76 6.96,24.9 12.72,30.66c2.58,2.58 5.64,2.22 7.56,0.06c5.88,-6.6 14.82,-25.26 12.9,-31.02c-0.24,-0.66 -0.48,-0.96 -1.74,-0.96c-3.06,0 -8.04,2.22 -11.88,5.28c3.12,3.42 4.38,6.84 3.78,10.14c-1.44,7.92 -12.78,7.8 -13.74,-0.12c-0.48,-4.38 1.62,-7.68 3.84,-10.02c-4.14,-3.18 -9.18,-5.34 -11.64,-5.16zm14.7,7.98c-2.1,2.34 -3.12,4.08 -2.82,6.72c0.3,3.12 4.98,3.18 5.58,-0.12c0.48,-2.4 -1.14,-4.86 -2.76,-6.6z"/>
  </g>
 </g>
</svg>